<svg id="c" xmlns="http://www.w3.org/2000/svg" viewBox="0 0 212.6 99.21"><defs><style>.cls-1{fill:#efefef;}.cls-2{fill:#81cde4;}.cls-3{fill:none;}.cls-4{fill:#231815;}</style></defs><title>6アートボード 14</title><polyline class="cls-1" points="44.62 12.49 44.63 78.11 56.97 87.06 56.95 21.45 44.62 12.49"/><path class="cls-2" d="M57,42.39,18.65,35.22h0a10.81,10.81,0,1,1,7.81-19.77l0,0L57,32.6Z"/><path class="cls-3" d="M55.43,33.49l-9.28-5.23-3.06-1.72L26,16.91a1.89,1.89,0,0,1-.36-.16,9.28,9.28,0,1,0-6.71,17h0l24.11,4.51,3.06.58,9.28,1.73Z"/><polygon class="cls-3" points="55.43 43.66 46.15 41.92 46.16 76.58 55.44 76.58 55.43 43.66"/><polygon class="cls-3" points="55.42 29.98 55.42 22.23 46.15 15.5 46.15 24.75 55.42 29.98"/><polygon class="cls-3" points="49.35 79.64 55.44 84.06 55.44 79.64 49.35 79.64"/><path d="M58.48,21.45a1.53,1.53,0,0,0-.63-1.24l-12.34-9a1.52,1.52,0,0,0-2.42,1.24V23L27.23,14.08,27,14a12.34,12.34,0,1,0-8.66,22.74h.06l24.72,4.63V78.11a1.55,1.55,0,0,0,.63,1.24l12.34,9a1.53,1.53,0,0,0,2.43-1.24h0Zm-3.06.78V30l-9.27-5.23V15.5Zm-12.33,16L19,33.72h0a9.28,9.28,0,1,1,6.71-17,1.89,1.89,0,0,0,.36.16l17.08,9.63,3.06,1.72,9.28,5.23v7l-9.28-1.73Zm3.06,3.69,9.28,1.74V76.58H46.16Zm3.2,37.72h6.09v4.42Z"/><path class="cls-4" d="M87.37,48.72a13.63,13.63,0,0,1-7-1.77,11.88,11.88,0,0,1-4.55-4.73,13.6,13.6,0,0,1-1.57-6.49,15,15,0,0,1,1.59-6.92,11.74,11.74,0,0,1,4.43-4.75,12.69,12.69,0,0,1,6.56-1.69,14.68,14.68,0,0,1,4.34.64,15.17,15.17,0,0,1,3.49,1.58.28.28,0,0,1,.1.34l-2,4.69a.26.26,0,0,1-.18.16h-.07a.27.27,0,0,1-.17-.06,8.85,8.85,0,0,0-5.39-2,6.4,6.4,0,0,0-3.46,1A7.39,7.39,0,0,0,81,31.53a8.14,8.14,0,0,0-1,3.93,9,9,0,0,0,.89,4.16,6.53,6.53,0,0,0,2.53,2.75,7.38,7.38,0,0,0,3.87,1,8.65,8.65,0,0,0,3.23-.57,7.08,7.08,0,0,0,2.25-1.37.32.32,0,0,1,.19-.07h0a.28.28,0,0,1,.19.16l2,4.46a.27.27,0,0,1-.07.32A11.27,11.27,0,0,1,92,47.92,13.34,13.34,0,0,1,87.37,48.72Z"/><path class="cls-4" d="M85,88.28a.27.27,0,0,1-.25-.17L74.69,61.84a.27.27,0,0,1,.25-.37h5.84a.28.28,0,0,1,.25.19L85.74,75.6l3.55-8.85-1.94-4.88a.28.28,0,0,1,0-.25.25.25,0,0,1,.22-.12h4.94a.26.26,0,0,1,.25.17L98.14,75l4.09-13.29a.27.27,0,0,1,.26-.19h5.35a.28.28,0,0,1,.23.11.28.28,0,0,1,0,.25L98.3,88.06a.25.25,0,0,1-.25.18h0a.27.27,0,0,1-.25-.17L92.06,73.68,85.29,88.13a.27.27,0,0,1-.24.15Z"/><path class="cls-4" d="M152.27,87.24a.25.25,0,0,1-.22-.12l-5.23-7.92h-2.91V87a.27.27,0,0,1-.27.27h-5a.27.27,0,0,1-.27-.27l.05-25.26a.27.27,0,0,1,.27-.27l7.65,0c3.19,0,5.7.8,7.47,2.36a8.21,8.21,0,0,1,2.67,6.44,10.4,10.4,0,0,1-1,4.49,7.5,7.5,0,0,1-2.87,3.17l5.7,8.94a.26.26,0,0,1,0,.27.27.27,0,0,1-.24.14Zm-5.08-13.38a3.28,3.28,0,0,0,2.73-1.07,3.82,3.82,0,0,0,.88-2.39,4.62,4.62,0,0,0-.74-2.48,3.1,3.1,0,0,0-2.83-1.13h-3.29l0,7.07Z"/><path class="cls-4" d="M176.46,87.29a.27.27,0,0,1-.22-.11l-7.58-10.53-.93.93,0,9.42a.27.27,0,0,1-.27.27h-5.05a.27.27,0,0,1-.27-.27l0-25.25a.27.27,0,0,1,.27-.27h5.05a.27.27,0,0,1,.27.27l0,9,0,.36.17-.22,8.26-9.29a.27.27,0,0,1,.21-.09h6.45a.27.27,0,0,1,.2.45L172.69,73.1,183,86.87a.26.26,0,0,1,0,.28.27.27,0,0,1-.24.15Z"/><path class="cls-4" d="M194.08,87.6a15.93,15.93,0,0,1-4.57-.69,14.52,14.52,0,0,1-4.23-2.09.27.27,0,0,1-.08-.35l2.2-3.88a.34.34,0,0,1,.18-.13h.06a.24.24,0,0,1,.16.05,12.27,12.27,0,0,0,2.92,1.55,8.54,8.54,0,0,0,2.92.6,5.07,5.07,0,0,0,2.61-.63,2,2,0,0,0,1-1.94c0-1.17-1.18-2.23-3.5-3.15a33,33,0,0,1-3.63-1.67,7.54,7.54,0,0,1-2.57-2.35,6.49,6.49,0,0,1-1.09-3.86,7.1,7.1,0,0,1,2.24-5.44,9,9,0,0,1,5.89-2.23h0a15.57,15.57,0,0,1,4.8.66,16.36,16.36,0,0,1,3.73,1.84.28.28,0,0,1,.09.35L201.36,68a.29.29,0,0,1-.17.14h-.08a.31.31,0,0,1-.13,0,12.14,12.14,0,0,0-5.59-1.8,4.07,4.07,0,0,0-2.4.6,2,2,0,0,0-.8,1.73,2.3,2.3,0,0,0,1.2,1.89,16.25,16.25,0,0,0,3.45,1.71A15,15,0,0,1,200,73.82a6.92,6.92,0,0,1,2.19,2.41A7.8,7.8,0,0,1,203,80.1,7.1,7.1,0,0,1,202,83.86a7.37,7.37,0,0,1-3.08,2.74A10.64,10.64,0,0,1,194.08,87.6Z"/><path d="M132.67,67.79a13.68,13.68,0,0,0-4.82-4.86,12.89,12.89,0,0,0-13.14,0,13.34,13.34,0,0,0-4.8,4.84,13,13,0,0,0,0,13.14,13.27,13.27,0,0,0,4.77,4.79,13.12,13.12,0,0,0,13.16,0,13.49,13.49,0,0,0,4.84-4.77,12.83,12.83,0,0,0,0-13.14ZM128.05,78.4a7.77,7.77,0,0,1-2.75,2.91,7.18,7.18,0,0,1-3.88,1.07,7.62,7.62,0,0,1-4-1.08,7.93,7.93,0,0,1-2.84-2.94,8.09,8.09,0,0,1-1-4,8.32,8.32,0,0,1,1-4.12,7.88,7.88,0,0,1,2.8-2.93,7.48,7.48,0,0,1,3.93-1.07,7.41,7.41,0,0,1,3.93,1.09A7.89,7.89,0,0,1,128,70.22a8.79,8.79,0,0,1,0,8.18Z"/><path class="cls-2" d="M125.24,67.28a7.41,7.41,0,0,0-3.93-1.09,7.48,7.48,0,0,0-3.93,1.07,7.88,7.88,0,0,0-2.8,2.93,8.32,8.32,0,0,0-1,4.12,8.09,8.09,0,0,0,1,4,7.93,7.93,0,0,0,2.84,2.94,7.62,7.62,0,0,0,4,1.08,7.18,7.18,0,0,0,3.88-1.07,7.77,7.77,0,0,0,2.75-2.91,8.79,8.79,0,0,0,0-8.18A7.89,7.89,0,0,0,125.24,67.28Z"/><rect class="cls-4" x="129.35" y="31.9" width="5.63" height="9.43" rx="0.27" ry="0.27" transform="translate(95.29 168.71) rotate(-89.89)"/><path d="M121.27,29.09a13.66,13.66,0,0,0-4.82-4.85,12.86,12.86,0,0,0-13.14,0,13.36,13.36,0,0,0-4.81,4.84,13,13,0,0,0-1.78,6.55,12.88,12.88,0,0,0,1.76,6.59A13.27,13.27,0,0,0,103.25,47a13.12,13.12,0,0,0,13.16,0,13.41,13.41,0,0,0,4.84-4.77,12.89,12.89,0,0,0,0-13.14Zm-3.69,7.65a8.15,8.15,0,0,1-.94,3,7.48,7.48,0,0,1-2.75,2.91A7.23,7.23,0,0,1,110,43.69a7.76,7.76,0,0,1-6.83-4,7.93,7.93,0,0,1-1-2.92c-.08-.58.32-.84.83-.52a14.09,14.09,0,0,0,13.71,0C117.28,35.91,117.65,36.12,117.58,36.74Z"/></svg>